<svg width="22" height="22" viewBox="0 0 22 22" fill="none" xmlns="http://www.w3.org/2000/svg">
<path d="M17.5349 0.603535H4.58476C2.37045 0.603535 0.56543 2.40857 0.56543 4.62288V17.573C0.56543 19.7873 2.37045 21.5923 4.58476 21.5923H17.5349C19.4448 21.5923 21.04 20.249 21.4492 18.465C21.5122 18.3495 21.5542 18.2236 21.5542 18.0872V4.62288C21.5542 2.40857 19.7492 0.603535 17.5349 0.603535ZM18.3219 12.1788C18.3219 12.6091 17.9651 12.9659 17.5349 12.9659C17.0941 12.9659 16.7478 12.6091 16.7478 12.1788V10.017C16.7478 9.58673 17.0941 9.22992 17.5349 9.22992C17.9651 9.22992 18.3219 9.58673 18.3219 10.017V12.1788ZM3.79769 12.1788V10.017C3.79769 9.58673 4.15449 9.22992 4.58476 9.22992C5.02553 9.22992 5.37184 9.58673 5.37184 10.017V12.1788C5.37184 12.6091 5.02553 12.9659 4.58476 12.9659C4.15449 12.9659 3.79769 12.6091 3.79769 12.1788ZM15.0791 7.86565V14.3302C15.0791 14.771 14.7328 15.1173 14.2921 15.1173C13.8618 15.1173 13.505 14.771 13.505 14.3302V7.86565C13.505 7.42488 13.8618 7.07857 14.2921 7.07857C14.7328 7.07857 15.0791 7.42488 15.0791 7.86565ZM11.8469 5.7038V16.492C11.8469 16.9223 11.4901 17.2791 11.0598 17.2791C10.6295 17.2791 10.2727 16.9223 10.2727 16.492V5.7038C10.2727 5.27353 10.6295 4.91673 11.0598 4.91673C11.4901 4.91673 11.8469 5.27353 11.8469 5.7038ZM8.61464 7.86565V14.3302C8.61464 14.771 8.25783 15.1173 7.82756 15.1173C7.38679 15.1173 7.04048 14.771 7.04048 14.3302V7.86565C7.04048 7.42488 7.38679 7.07857 7.82756 7.07857C8.25783 7.07857 8.61464 7.42488 8.61464 7.86565Z" fill="black"/>
</svg>
