<svg width="20" height="20" viewBox="0 0 20 20" fill="none" xmlns="http://www.w3.org/2000/svg">
<circle cx="10" cy="10.0001" r="10" fill="#12141D"/>
<path d="M15.0429 6.238C14.9682 6.16262 14.8792 6.1028 14.7812 6.06197C14.6832 6.02114 14.5781 6.00012 14.472 6.00012C14.3658 6.00012 14.2607 6.02114 14.1627 6.06197C14.0647 6.1028 13.9758 6.16262 13.901 6.238L7.90986 12.2372L5.39278 9.71205C5.31516 9.63707 5.22353 9.57812 5.12312 9.53855C5.02271 9.49898 4.9155 9.47957 4.80759 9.48144C4.69969 9.48331 4.59321 9.50641 4.49423 9.54943C4.39525 9.59245 4.30572 9.65454 4.23074 9.73216C4.15576 9.80978 4.0968 9.90141 4.05723 10.0018C4.01766 10.1022 3.99826 10.2094 4.00012 10.3173C4.00199 10.4252 4.02509 10.5317 4.06811 10.6307C4.11113 10.7297 4.17322 10.8192 4.25084 10.8942L7.33889 13.9822C7.41365 14.0576 7.50259 14.1174 7.60059 14.1583C7.69859 14.1991 7.8037 14.2201 7.90986 14.2201C8.01602 14.2201 8.12113 14.1991 8.21913 14.1583C8.31712 14.1174 8.40607 14.0576 8.48083 13.9822L15.0429 7.42014C15.1246 7.34484 15.1897 7.25344 15.2343 7.15171C15.2788 7.04998 15.3018 6.94013 15.3018 6.82907C15.3018 6.71801 15.2788 6.60816 15.2343 6.50643C15.1897 6.4047 15.1246 6.3133 15.0429 6.238Z" fill="#D1EDF5"/>
</svg>
