<svg width="21" height="22" viewBox="0 0 21 22" fill="none" xmlns="http://www.w3.org/2000/svg">
<path d="M17.6726 3.61843C15.7416 1.68746 13.1705 0.627529 10.442 0.627529C7.71344 0.627529 5.14232 1.68746 3.21135 3.61843C1.26989 5.54939 0.209961 8.12052 0.209961 10.8596C0.209961 12.2028 0.472322 13.5251 0.986547 14.774C1.50077 16.0228 2.25637 17.1352 3.21135 18.0902C4.15585 19.0452 5.27875 19.7903 6.52758 20.3045C7.77641 20.8292 9.08821 21.0916 10.442 21.0916C11.7958 21.0916 13.1076 20.8292 14.3564 20.3045C15.6052 19.7903 16.7281 19.0452 17.6726 18.0902C18.6276 17.1352 19.3832 16.0228 19.8974 14.774C20.4116 13.5251 20.674 12.2028 20.674 10.8596C20.674 8.12052 19.6141 5.54939 17.6726 3.61843ZM11.2291 15.3616V15.582C11.2291 16.0123 10.8723 16.3691 10.442 16.3691C10.0117 16.3691 9.65491 16.0123 9.65491 15.582V15.3511C8.7314 15.2042 7.91284 14.8054 7.38812 14.2073C7.15724 13.9344 7.13625 13.5356 7.34614 13.2418C7.55603 12.9374 7.93383 12.8325 8.26965 12.9584L9.65491 13.4831V11.5732C8.01778 11.3213 6.82142 10.2614 6.82142 8.97056C6.82142 7.66926 8.01778 6.61982 9.65491 6.35746V6.13708C9.65491 5.69632 10.0117 5.35 10.442 5.35C10.8723 5.35 11.2291 5.69632 11.2291 6.13708V6.35746C12.1526 6.51488 12.9711 6.91367 13.4958 7.50135C13.7267 7.77421 13.7477 8.17299 13.5378 8.47733C13.3909 8.68722 13.1495 8.81315 12.8977 8.81315C12.8032 8.81315 12.7088 8.79216 12.6143 8.76068L11.2291 8.22546V10.1354C12.8662 10.3873 14.0625 11.4472 14.0625 12.7485C14.0625 14.0498 12.8662 15.0993 11.2291 15.3616Z" fill="black"/>
</svg>
